<svg xmlns="http://www.w3.org/2000/svg" xmlns:xlink="http://www.w3.org/1999/xlink" width="500" zoomAndPan="magnify" viewBox="0 0 375 374.999991" height="500" preserveAspectRatio="xMidYMid meet" version="1.0"><defs><g/><clipPath id="4afc6d3112"><path d="M 58.023438 0 L 316.628906 0 L 316.628906 295.546875 L 58.023438 295.546875 Z M 58.023438 0 " clip-rule="nonzero"/></clipPath><clipPath id="31270adc64"><path d="M 120 142.136719 L 254.378906 142.136719 L 254.378906 245.578125 L 120 245.578125 Z M 120 142.136719 " clip-rule="nonzero"/></clipPath></defs><g fill="#545454" fill-opacity="1"><g transform="translate(69.751056, 330.748561)"><g><path d="M 15.609375 -11.171875 C 16.890625 -10.878906 17.90625 -10.242188 18.65625 -9.265625 C 19.40625 -8.296875 19.78125 -7.179688 19.78125 -5.921875 C 19.78125 -4.066406 19.140625 -2.613281 17.859375 -1.5625 C 16.585938 -0.519531 14.800781 0 12.5 0 L 1.734375 0 L 1.734375 -21.75 L 12.15625 -21.75 C 14.375 -21.75 16.113281 -21.253906 17.375 -20.265625 C 18.644531 -19.285156 19.28125 -17.898438 19.28125 -16.109375 C 19.28125 -14.835938 18.945312 -13.773438 18.28125 -12.921875 C 17.613281 -12.066406 16.722656 -11.484375 15.609375 -11.171875 Z M 7.78125 -13.109375 L 10.828125 -13.109375 C 12.347656 -13.109375 13.109375 -13.738281 13.109375 -15 C 13.109375 -16.289062 12.347656 -16.9375 10.828125 -16.9375 L 7.78125 -16.9375 Z M 11.296875 -4.875 C 12.816406 -4.875 13.578125 -5.515625 13.578125 -6.796875 C 13.578125 -7.453125 13.375 -7.953125 12.96875 -8.296875 C 12.570312 -8.648438 12.003906 -8.828125 11.265625 -8.828125 L 7.78125 -8.828125 L 7.78125 -4.875 Z M 11.296875 -4.875 "/></g></g></g><g fill="#545454" fill-opacity="1"><g transform="translate(93.874315, 330.748561)"><g><path d="M 7.65625 -21.75 L 7.65625 -9.140625 C 7.65625 -7.960938 7.925781 -7.054688 8.46875 -6.421875 C 9.007812 -5.785156 9.835938 -5.46875 10.953125 -5.46875 C 12.066406 -5.46875 12.90625 -5.789062 13.46875 -6.4375 C 14.03125 -7.082031 14.3125 -7.984375 14.3125 -9.140625 L 14.3125 -21.75 L 20.375 -21.75 L 20.375 -9.140625 C 20.375 -7.140625 19.953125 -5.429688 19.109375 -4.015625 C 18.265625 -2.609375 17.113281 -1.550781 15.65625 -0.84375 C 14.207031 -0.132812 12.597656 0.21875 10.828125 0.21875 C 9.054688 0.21875 7.476562 -0.132812 6.09375 -0.84375 C 4.707031 -1.550781 3.617188 -2.601562 2.828125 -4 C 2.035156 -5.40625 1.640625 -7.117188 1.640625 -9.140625 L 1.640625 -21.75 Z M 7.65625 -21.75 "/></g></g></g><g fill="#545454" fill-opacity="1"><g transform="translate(119.262315, 330.748561)"><g><path d="M 7.78125 -4.625 L 14.53125 -4.625 L 14.53125 0 L 1.734375 0 L 1.734375 -21.75 L 7.78125 -21.75 Z M 7.78125 -4.625 "/></g></g></g><g fill="#545454" fill-opacity="1"><g transform="translate(137.83304, 330.748561)"><g><path d="M 14.59375 0 L 7.78125 -9.53125 L 7.78125 0 L 1.734375 0 L 1.734375 -21.75 L 7.78125 -21.75 L 7.78125 -12.375 L 14.53125 -21.75 L 21.515625 -21.75 L 13.515625 -11.203125 L 21.90625 0 Z M 14.59375 0 "/></g></g></g><g fill="#545454" fill-opacity="1"><g transform="translate(163.652907, 330.748561)"><g/></g></g><g fill="#545454" fill-opacity="1"><g transform="translate(172.96941, 330.748561)"><g><path d="M 10.34375 -21.75 C 12.625 -21.75 14.625 -21.289062 16.34375 -20.375 C 18.0625 -19.46875 19.378906 -18.191406 20.296875 -16.546875 C 21.222656 -14.898438 21.6875 -13.015625 21.6875 -10.890625 C 21.6875 -8.796875 21.21875 -6.925781 20.28125 -5.28125 C 19.351562 -3.632812 18.03125 -2.34375 16.3125 -1.40625 C 14.59375 -0.46875 12.601562 0 10.34375 0 L 1.734375 0 L 1.734375 -21.75 Z M 9.875 -5.34375 C 11.644531 -5.34375 13.03125 -5.820312 14.03125 -6.78125 C 15.039062 -7.75 15.546875 -9.117188 15.546875 -10.890625 C 15.546875 -12.679688 15.039062 -14.066406 14.03125 -15.046875 C 13.03125 -16.023438 11.644531 -16.515625 9.875 -16.515625 L 7.78125 -16.515625 L 7.78125 -5.34375 Z M 9.875 -5.34375 "/></g></g></g><g fill="#545454" fill-opacity="1"><g transform="translate(199.066901, 330.748561)"><g><path d="M 7.78125 -16.90625 L 7.78125 -13.359375 L 14.71875 -13.359375 L 14.71875 -8.765625 L 7.78125 -8.765625 L 7.78125 -4.84375 L 15.640625 -4.84375 L 15.640625 0 L 1.734375 0 L 1.734375 -21.75 L 15.640625 -21.75 L 15.640625 -16.90625 Z M 7.78125 -16.90625 "/></g></g></g><g fill="#545454" fill-opacity="1"><g transform="translate(219.395925, 330.748561)"><g><path d="M 9.9375 0.21875 C 7.40625 0.21875 5.328125 -0.378906 3.703125 -1.578125 C 2.078125 -2.785156 1.203125 -4.515625 1.078125 -6.765625 L 7.53125 -6.765625 C 7.59375 -5.992188 7.816406 -5.429688 8.203125 -5.078125 C 8.597656 -4.734375 9.101562 -4.5625 9.71875 -4.5625 C 10.269531 -4.5625 10.726562 -4.703125 11.09375 -4.984375 C 11.457031 -5.265625 11.640625 -5.648438 11.640625 -6.140625 C 11.640625 -6.773438 11.335938 -7.265625 10.734375 -7.609375 C 10.140625 -7.960938 9.175781 -8.359375 7.84375 -8.796875 C 6.414062 -9.265625 5.265625 -9.71875 4.390625 -10.15625 C 3.523438 -10.601562 2.765625 -11.253906 2.109375 -12.109375 C 1.460938 -12.960938 1.140625 -14.078125 1.140625 -15.453125 C 1.140625 -16.859375 1.488281 -18.054688 2.1875 -19.046875 C 2.882812 -20.046875 3.847656 -20.800781 5.078125 -21.3125 C 6.316406 -21.832031 7.71875 -22.09375 9.28125 -22.09375 C 11.8125 -22.09375 13.832031 -21.5 15.34375 -20.3125 C 16.863281 -19.132812 17.675781 -17.476562 17.78125 -15.34375 L 11.203125 -15.34375 C 11.179688 -16 10.976562 -16.488281 10.59375 -16.8125 C 10.21875 -17.144531 9.734375 -17.3125 9.140625 -17.3125 C 8.679688 -17.3125 8.304688 -17.175781 8.015625 -16.90625 C 7.734375 -16.644531 7.59375 -16.265625 7.59375 -15.765625 C 7.59375 -15.359375 7.75 -15.003906 8.0625 -14.703125 C 8.382812 -14.398438 8.78125 -14.140625 9.25 -13.921875 C 9.726562 -13.710938 10.429688 -13.441406 11.359375 -13.109375 C 12.734375 -12.640625 13.867188 -12.171875 14.765625 -11.703125 C 15.660156 -11.242188 16.429688 -10.597656 17.078125 -9.765625 C 17.722656 -8.929688 18.046875 -7.878906 18.046875 -6.609375 C 18.046875 -5.304688 17.722656 -4.140625 17.078125 -3.109375 C 16.429688 -2.085938 15.492188 -1.273438 14.265625 -0.671875 C 13.046875 -0.078125 11.601562 0.21875 9.9375 0.21875 Z M 9.9375 0.21875 "/></g></g></g><g fill="#545454" fill-opacity="1"><g transform="translate(241.945959, 330.748561)"><g><path d="M 7.78125 -21.75 L 7.78125 0 L 1.734375 0 L 1.734375 -21.75 Z M 7.78125 -21.75 "/></g></g></g><g fill="#545454" fill-opacity="1"><g transform="translate(254.871612, 330.748561)"><g><path d="M 15.609375 -14.59375 C 15.265625 -15.164062 14.785156 -15.609375 14.171875 -15.921875 C 13.566406 -16.234375 12.851562 -16.390625 12.03125 -16.390625 C 10.507812 -16.390625 9.3125 -15.894531 8.4375 -14.90625 C 7.5625 -13.914062 7.125 -12.585938 7.125 -10.921875 C 7.125 -9.046875 7.59375 -7.617188 8.53125 -6.640625 C 9.46875 -5.671875 10.832031 -5.1875 12.625 -5.1875 C 14.738281 -5.1875 16.25 -6.140625 17.15625 -8.046875 L 11.078125 -8.046875 L 11.078125 -12.40625 L 22.375 -12.40625 L 22.375 -6.546875 C 21.894531 -5.390625 21.195312 -4.304688 20.28125 -3.296875 C 19.375 -2.296875 18.21875 -1.46875 16.8125 -0.8125 C 15.414062 -0.164062 13.820312 0.15625 12.03125 0.15625 C 9.851562 0.15625 7.925781 -0.3125 6.25 -1.25 C 4.570312 -2.1875 3.273438 -3.492188 2.359375 -5.171875 C 1.441406 -6.847656 0.984375 -8.765625 0.984375 -10.921875 C 0.984375 -13.066406 1.441406 -14.972656 2.359375 -16.640625 C 3.273438 -18.316406 4.566406 -19.625 6.234375 -20.5625 C 7.898438 -21.5 9.820312 -21.96875 12 -21.96875 C 14.738281 -21.96875 17.003906 -21.304688 18.796875 -19.984375 C 20.585938 -18.671875 21.695312 -16.875 22.125 -14.59375 Z M 15.609375 -14.59375 "/></g></g></g><g fill="#545454" fill-opacity="1"><g transform="translate(281.647761, 330.748561)"><g><path d="M 21.875 0 L 15.828125 0 L 7.78125 -12.15625 L 7.78125 0 L 1.734375 0 L 1.734375 -21.75 L 7.78125 -21.75 L 15.828125 -9.4375 L 15.828125 -21.75 L 21.875 -21.75 Z M 21.875 0 "/></g></g></g><g fill="#545454" fill-opacity="1"><g transform="translate(93.380926, 367.236574)"><g><path d="M 7.65625 -21.75 L 7.65625 -9.140625 C 7.65625 -7.960938 7.925781 -7.054688 8.46875 -6.421875 C 9.007812 -5.785156 9.835938 -5.46875 10.953125 -5.46875 C 12.066406 -5.46875 12.90625 -5.789062 13.46875 -6.4375 C 14.03125 -7.082031 14.3125 -7.984375 14.3125 -9.140625 L 14.3125 -21.75 L 20.375 -21.75 L 20.375 -9.140625 C 20.375 -7.140625 19.953125 -5.429688 19.109375 -4.015625 C 18.265625 -2.609375 17.113281 -1.550781 15.65625 -0.84375 C 14.207031 -0.132812 12.597656 0.21875 10.828125 0.21875 C 9.054688 0.21875 7.476562 -0.132812 6.09375 -0.84375 C 4.707031 -1.550781 3.617188 -2.601562 2.828125 -4 C 2.035156 -5.40625 1.640625 -7.117188 1.640625 -9.140625 L 1.640625 -21.75 Z M 7.65625 -21.75 "/></g></g></g><g fill="#545454" fill-opacity="1"><g transform="translate(118.768925, 367.236574)"><g><path d="M 18.921875 -14.5 C 18.921875 -13.1875 18.613281 -11.988281 18 -10.90625 C 17.394531 -9.820312 16.476562 -8.957031 15.25 -8.3125 C 14.03125 -7.664062 12.535156 -7.34375 10.765625 -7.34375 L 7.78125 -7.34375 L 7.78125 0 L 1.734375 0 L 1.734375 -21.75 L 10.765625 -21.75 C 12.515625 -21.75 14 -21.441406 15.21875 -20.828125 C 16.445312 -20.210938 17.367188 -19.359375 17.984375 -18.265625 C 18.609375 -17.179688 18.921875 -15.925781 18.921875 -14.5 Z M 10.1875 -12.15625 C 11.894531 -12.15625 12.75 -12.9375 12.75 -14.5 C 12.75 -16.082031 11.894531 -16.875 10.1875 -16.875 L 7.78125 -16.875 L 7.78125 -12.15625 Z M 10.1875 -12.15625 "/></g></g></g><g fill="#545454" fill-opacity="1"><g transform="translate(141.812527, 367.236574)"><g><path d="M 7.78125 -4.625 L 14.53125 -4.625 L 14.53125 0 L 1.734375 0 L 1.734375 -21.75 L 7.78125 -21.75 Z M 7.78125 -4.625 "/></g></g></g><g fill="#545454" fill-opacity="1"><g transform="translate(160.383252, 367.236574)"><g><path d="M 12.15625 0.21875 C 10.125 0.21875 8.253906 -0.257812 6.546875 -1.21875 C 4.835938 -2.175781 3.484375 -3.503906 2.484375 -5.203125 C 1.484375 -6.898438 0.984375 -8.816406 0.984375 -10.953125 C 0.984375 -13.097656 1.484375 -15.015625 2.484375 -16.703125 C 3.484375 -18.398438 4.835938 -19.722656 6.546875 -20.671875 C 8.253906 -21.617188 10.125 -22.09375 12.15625 -22.09375 C 14.21875 -22.09375 16.097656 -21.617188 17.796875 -20.671875 C 19.492188 -19.722656 20.832031 -18.398438 21.8125 -16.703125 C 22.800781 -15.015625 23.296875 -13.097656 23.296875 -10.953125 C 23.296875 -8.816406 22.800781 -6.898438 21.8125 -5.203125 C 20.832031 -3.503906 19.488281 -2.175781 17.78125 -1.21875 C 16.070312 -0.257812 14.195312 0.21875 12.15625 0.21875 Z M 12.15625 -5.40625 C 13.695312 -5.40625 14.914062 -5.90625 15.8125 -6.90625 C 16.707031 -7.914062 17.15625 -9.265625 17.15625 -10.953125 C 17.15625 -12.679688 16.707031 -14.046875 15.8125 -15.046875 C 14.914062 -16.046875 13.695312 -16.546875 12.15625 -16.546875 C 10.59375 -16.546875 9.367188 -16.046875 8.484375 -15.046875 C 7.597656 -14.046875 7.15625 -12.679688 7.15625 -10.953125 C 7.15625 -9.242188 7.597656 -7.890625 8.484375 -6.890625 C 9.367188 -5.898438 10.59375 -5.40625 12.15625 -5.40625 Z M 12.15625 -5.40625 "/></g></g></g><g fill="#545454" fill-opacity="1"><g transform="translate(188.084812, 367.236574)"><g><path d="M 15.484375 -3.546875 L 7.78125 -3.546875 L 6.609375 0 L 0.25 0 L 8.171875 -21.75 L 15.15625 -21.75 L 23.046875 0 L 16.671875 0 Z M 13.984375 -8.171875 L 11.640625 -15.21875 L 9.3125 -8.171875 Z M 13.984375 -8.171875 "/></g></g></g><g fill="#545454" fill-opacity="1"><g transform="translate(214.799255, 367.236574)"><g><path d="M 10.34375 -21.75 C 12.625 -21.75 14.625 -21.289062 16.34375 -20.375 C 18.0625 -19.46875 19.378906 -18.191406 20.296875 -16.546875 C 21.222656 -14.898438 21.6875 -13.015625 21.6875 -10.890625 C 21.6875 -8.796875 21.21875 -6.925781 20.28125 -5.28125 C 19.351562 -3.632812 18.03125 -2.34375 16.3125 -1.40625 C 14.59375 -0.46875 12.601562 0 10.34375 0 L 1.734375 0 L 1.734375 -21.75 Z M 9.875 -5.34375 C 11.644531 -5.34375 13.03125 -5.820312 14.03125 -6.78125 C 15.039062 -7.75 15.546875 -9.117188 15.546875 -10.890625 C 15.546875 -12.679688 15.039062 -14.066406 14.03125 -15.046875 C 13.03125 -16.023438 11.644531 -16.515625 9.875 -16.515625 L 7.78125 -16.515625 L 7.78125 -5.34375 Z M 9.875 -5.34375 "/></g></g></g><g fill="#545454" fill-opacity="1"><g transform="translate(240.896745, 367.236574)"><g><path d="M 7.78125 -16.90625 L 7.78125 -13.359375 L 14.71875 -13.359375 L 14.71875 -8.765625 L 7.78125 -8.765625 L 7.78125 -4.84375 L 15.640625 -4.84375 L 15.640625 0 L 1.734375 0 L 1.734375 -21.75 L 15.640625 -21.75 L 15.640625 -16.90625 Z M 7.78125 -16.90625 "/></g></g></g><g fill="#545454" fill-opacity="1"><g transform="translate(261.225769, 367.236574)"><g><path d="M 12.75 0 L 8.421875 -8.03125 L 7.78125 -8.03125 L 7.78125 0 L 1.734375 0 L 1.734375 -21.75 L 11.265625 -21.75 C 13.015625 -21.75 14.492188 -21.445312 15.703125 -20.84375 C 16.921875 -20.238281 17.835938 -19.40625 18.453125 -18.34375 C 19.066406 -17.28125 19.375 -16.09375 19.375 -14.78125 C 19.375 -13.300781 18.96875 -12 18.15625 -10.875 C 17.34375 -9.757812 16.15625 -8.960938 14.59375 -8.484375 L 19.5 0 Z M 7.78125 -12.15625 L 10.765625 -12.15625 C 11.585938 -12.15625 12.203125 -12.347656 12.609375 -12.734375 C 13.023438 -13.128906 13.234375 -13.695312 13.234375 -14.4375 C 13.234375 -15.132812 13.019531 -15.679688 12.59375 -16.078125 C 12.175781 -16.484375 11.566406 -16.6875 10.765625 -16.6875 L 7.78125 -16.6875 Z M 7.78125 -12.15625 "/></g></g></g><g clip-path="url(#4afc6d3112)"><path fill="#ff8c2c" d="M 162.242188 28.6875 C 155.523438 35.695312 150.382812 47.046875 150.382812 63.894531 L 150.382812 83.152344 L 224.269531 83.152344 L 224.269531 63.898438 C 224.269531 33.40625 204.898438 18.996094 187.09375 18.542969 C 177.988281 18.3125 169 21.648438 162.242188 28.6875 Z M 242.742188 83.152344 L 242.742188 63.898438 C 242.742188 23.957031 215.9375 0.804688 187.5625 0.0859375 C 173.574219 -0.269531 159.472656 4.902344 148.914062 15.910156 C 138.316406 26.953125 131.910156 43.183594 131.910156 63.894531 L 131.910156 83.152344 L 58.023438 83.152344 L 58.023438 249.320312 C 58.023438 274.8125 78.699219 295.480469 104.203125 295.480469 L 270.449219 295.480469 C 295.953125 295.480469 316.628906 274.8125 316.628906 249.320312 L 316.628906 83.152344 Z M 224.269531 101.617188 L 224.269531 110.847656 L 242.742188 110.847656 L 242.742188 101.617188 L 298.15625 101.617188 L 298.15625 249.320312 C 298.15625 264.617188 285.753906 277.015625 270.449219 277.015625 L 104.203125 277.015625 C 88.902344 277.015625 76.496094 264.617188 76.496094 249.320312 L 76.496094 101.617188 L 131.910156 101.617188 L 131.910156 110.847656 L 150.382812 110.847656 L 150.382812 101.617188 Z M 224.269531 101.617188 " fill-opacity="1" fill-rule="evenodd"/></g><g clip-path="url(#31270adc64)"><path fill="#ff8c2c" d="M 254.285156 211.328125 C 254.238281 214.066406 253.839844 216.792969 253.101562 219.425781 C 252.097656 222.992188 250.488281 226.359375 248.320312 229.445312 C 248.3125 229.453125 248.304688 229.464844 248.296875 229.472656 C 248.292969 229.480469 248.289062 229.488281 248.285156 229.496094 C 247.65625 230.386719 246.972656 231.261719 246.261719 232.09375 C 245.15625 233.382812 243.929688 234.621094 242.621094 235.769531 C 241.1875 237.027344 239.636719 238.195312 238.015625 239.230469 C 237.996094 239.246094 237.980469 239.253906 237.964844 239.265625 C 237.960938 239.265625 237.957031 239.265625 237.957031 239.265625 C 237.957031 239.269531 237.957031 239.269531 237.953125 239.269531 C 237.949219 239.273438 237.941406 239.28125 237.933594 239.285156 C 237.925781 239.289062 237.917969 239.292969 237.90625 239.296875 C 231.445312 243.40625 223.824219 245.578125 215.855469 245.578125 L 208.054688 245.578125 C 198.769531 245.578125 190.136719 241.378906 184.960938 234.339844 L 174.613281 220.265625 C 174.109375 219.582031 174.03125 218.671875 174.410156 217.910156 C 174.792969 217.148438 175.5625 216.671875 176.410156 216.671875 L 215.855469 216.671875 C 218.40625 216.671875 220.753906 215.746094 222.296875 214.140625 C 223.324219 213.070312 223.828125 211.886719 223.785156 210.621094 C 223.734375 209.046875 222.753906 207.519531 221.089844 206.414062 C 219.726562 205.867188 218.261719 205.363281 216.726562 204.910156 C 216.382812 204.878906 216.035156 204.859375 215.683594 204.859375 L 179.417969 204.859375 C 169.480469 204.859375 160.265625 200.355469 154.773438 192.8125 L 145.105469 179.535156 C 144.609375 178.847656 144.53125 177.941406 144.914062 177.183594 C 145.296875 176.425781 146.066406 175.949219 146.910156 175.949219 L 211.339844 175.949219 C 212.675781 175.917969 213.875 175.441406 214.636719 174.640625 C 215.019531 174.238281 215.207031 173.839844 215.191406 173.445312 C 215.167969 172.953125 214.753906 172.386719 214.082031 171.929688 C 213.253906 171.371094 212.148438 171.050781 211.042969 171.050781 L 153.683594 171.050781 C 144.441406 171.050781 135.867188 166.855469 130.75 159.828125 L 120.480469 145.726562 C 119.980469 145.042969 119.90625 144.132812 120.289062 143.375 C 120.667969 142.621094 121.441406 142.140625 122.285156 142.140625 L 210.980469 142.140625 C 219.804688 142.140625 228.253906 145.203125 234.769531 150.757812 C 241.640625 156.621094 245.519531 164.488281 245.6875 172.917969 C 245.78125 177.433594 244.828125 181.824219 242.855469 185.964844 C 246.027344 188.796875 248.609375 192.085938 250.535156 195.742188 C 253.082031 200.578125 254.382812 205.96875 254.285156 211.328125 " fill-opacity="1" fill-rule="nonzero"/></g></svg>